# Blender v2.70 (sub 0) OBJ File: 'Alpine-A110 -opengl.blend'
# www.blender.org
o phareArriereIn_phare_arrière.002
v 3.179080 0.224983 -9.938279
v 3.339695 0.286419 -9.651467
v 3.359758 0.045753 -10.521197
v 3.129516 0.070426 -10.534492
v 3.168269 0.335025 -9.649388
v 3.369569 0.182355 -9.933114
v 3.168341 0.335226 -9.640658
v 3.253796 0.320902 -9.649758
v 3.167984 0.167595 -10.231301
v 2.987183 0.093241 -10.541715
v 3.082929 0.338966 -9.649688
v 3.339188 0.286439 -9.642917
v 3.378504 0.128396 -10.219951
v 3.432875 0.174070 -9.931214
v 3.258243 0.061416 -10.529614
v 3.447667 0.032921 -10.509637
v 3.095425 0.001407 -10.854579
v 3.346937 -0.022082 -10.831990
v 3.298020 0.202415 -9.933879
v 3.051897 0.259324 -9.938802
v 3.425782 0.241755 -9.653844
v 3.167641 0.282364 -9.725471
v 3.344123 0.235344 -9.725991
v 3.253286 0.319948 -9.641109
v 3.303060 0.154929 -10.228135
v 3.104754 0.339243 -9.643031
v 3.020674 0.179194 -10.229690
v 3.404025 0.253956 -9.646894
v 3.440012 0.105970 -10.210286
v 3.229738 -0.005950 -10.844069
v 2.996931 0.025850 -10.781226
v 3.426441 -0.018592 -10.744967
v 3.258233 0.278322 -9.725154
v 3.074699 0.317844 -9.726365
v 3.427663 0.223804 -9.727405
v -3.179082 0.224983 -9.938279
v -3.339698 0.286419 -9.651467
v -3.359761 0.045754 -10.521197
v -3.129519 0.070427 -10.534492
v -3.168272 0.335025 -9.649388
v -3.369571 0.182356 -9.933114
v -3.168344 0.335226 -9.640658
v -3.253798 0.320903 -9.649758
v -3.167986 0.167595 -10.231301
v -2.987185 0.093241 -10.541715
v -3.082932 0.338967 -9.649688
v -3.339190 0.286439 -9.642917
v -3.378506 0.128396 -10.219951
v -3.432877 0.174070 -9.931214
v -3.258246 0.061416 -10.529614
v -3.447669 0.032921 -10.509637
v -3.095428 0.001407 -10.854579
v -3.346940 -0.022082 -10.831990
v -3.298022 0.202415 -9.933879
v -3.051899 0.259325 -9.938802
v -3.425784 0.241755 -9.653844
v -3.167644 0.282365 -9.725471
v -3.344126 0.235344 -9.725991
v -3.253289 0.319948 -9.641109
v -3.303062 0.154929 -10.228135
v -3.104757 0.339243 -9.643031
v -3.020677 0.179194 -10.229690
v -3.404028 0.253956 -9.646894
v -3.440014 0.105970 -10.210286
v -3.229740 -0.005949 -10.844069
v -2.996933 0.025850 -10.781226
v -3.426444 -0.018591 -10.744967
v -3.258235 0.278322 -9.725154
v -3.074701 0.317844 -9.726365
v -3.427665 0.223804 -9.727405
vt 0.070658 0.282688
vt 0.074450 0.208323
vt 0.240676 0.207546
vt 0.448106 0.207163
vt 0.462131 0.298684
vt 0.240302 0.291420
vt 0.489713 0.427251
vt 0.247308 0.397583
vt 0.069248 0.359991
vt 0.076225 0.128930
vt 0.011919 0.207884
vt 0.014733 0.131474
vt 0.004733 0.207828
vt 0.007675 0.131753
vt 0.011722 0.072008
vt 0.017770 0.051549
vt 0.079529 0.043039
vt 0.705292 0.116682
vt 0.980698 0.114735
vt 0.987634 0.208411
vt 0.695670 0.206724
vt 0.458896 0.120570
vt 0.481860 0.000131
vt 0.726222 0.014582
vt 0.915100 0.048708
vt 0.716082 0.306997
vt 0.999869 0.314673
vt 0.944737 0.397097
vt 0.749060 0.427251
vt 0.000856 0.278689
vt 0.008040 0.279097
vt 0.004790 0.349065
vt 0.000131 0.330971
vt 0.243022 0.123382
vt 0.250961 0.015561
vn 0.173833 0.904660 -0.388989
vn 0.232795 0.890591 -0.390667
vn 0.218787 0.948607 -0.228553
vn 0.226295 0.944456 -0.238166
vn 0.096957 0.965423 -0.241981
vn 0.213385 0.946684 -0.241310
vn 0.096561 0.964239 -0.246819
vn 0.251178 0.925943 -0.282028
vn 0.330196 0.906047 -0.264668
vn 0.265725 0.891995 -0.365642
vn 0.270272 0.944517 -0.186621
vn 0.368511 0.900235 -0.231727
vn 0.272939 0.954717 0.118402
vn 0.409617 0.912080 0.017980
vn 0.428431 0.880269 -0.203897
vn 0.446337 0.874083 -0.191737
vn 0.208644 0.928572 -0.306956
vn 0.174413 0.955931 -0.236122
vn 0.166355 0.961495 -0.218755
vn 0.109579 0.970132 -0.216419
vn 0.128452 0.957762 -0.257179
vn 0.336589 0.911893 -0.234779
vn 0.348789 0.906955 -0.236175
vn 0.172227 0.959151 -0.224427
vn 0.206648 0.951726 -0.226965
vn 0.122745 0.955473 -0.268197
vn 0.080400 0.969732 -0.230555
vn 0.038323 0.962320 -0.269206
vn 0.141097 0.952674 -0.269264
vn 0.106556 0.993995 -0.024905
vn 0.087527 0.951598 -0.294565
vn 0.183935 0.900096 -0.394961
vn 0.070774 0.959713 -0.271923
vn 0.208625 0.955473 -0.208563
vn 0.149356 0.966817 -0.207264
vn -0.218787 0.948607 -0.228553
vn -0.232795 0.890591 -0.390667
vn -0.173833 0.904660 -0.388989
vn -0.096957 0.965423 -0.241981
vn -0.226295 0.944456 -0.238166
vn -0.213385 0.946684 -0.241310
vn -0.251181 0.925942 -0.282029
vn -0.096560 0.964239 -0.246819
vn -0.330195 0.906047 -0.264668
vn -0.270272 0.944517 -0.186621
vn -0.265725 0.891995 -0.365642
vn -0.368511 0.900266 -0.231727
vn -0.409593 0.912091 0.017980
vn -0.272939 0.954718 0.118401
vn -0.446336 0.874084 -0.191736
vn -0.428519 0.880231 -0.203876
vn -0.208640 0.928573 -0.306956
vn -0.174413 0.955931 -0.236122
vn -0.128452 0.957762 -0.257179
vn -0.109579 0.970131 -0.216420
vn -0.336589 0.911893 -0.234779
vn -0.172227 0.959151 -0.224427
vn -0.348791 0.906954 -0.236175
vn -0.166355 0.961495 -0.218755
vn -0.206648 0.951727 -0.226964
vn -0.122745 0.955473 -0.268197
vn -0.080401 0.969732 -0.230555
vn -0.141097 0.952674 -0.269264
vn -0.038326 0.962320 -0.269206
vn -0.106556 0.993995 -0.024905
vn -0.087527 0.951598 -0.294565
vn -0.183935 0.900097 -0.394960
vn -0.070775 0.959713 -0.271921
vn -0.208625 0.955473 -0.208563
vn -0.149357 0.966816 -0.207265
s 1
f 22/1/1 33/2/2 19/3/3
f 19/3/3 25/4/4 9/5/5
f 1/6/6 9/5/5 27/7/7
f 1/6/6 20/8/8 34/9/9
f 23/10/10 33/2/2 8/11/11
f 2/12/12 8/11/11 24/13/13
f 12/14/14 28/15/15 21/16/16
f 2/12/12 21/16/16 35/17/17
f 3/18/18 18/19/19 30/20/20
f 15/21/21 25/4/4 13/22/22
f 3/18/18 13/22/22 29/23/23
f 16/24/24 32/25/25 18/19/19
f 4/26/26 9/5/5 25/4/4
f 15/21/21 30/20/20 17/27/27
f 17/27/27 31/28/28 10/29/29
f 10/29/29 27/7/7 9/5/5
f 7/30/30 24/13/13 8/11/11
f 5/31/31 8/11/11 33/2/2
f 22/1/1 34/9/9 11/32/32
f 11/32/32 26/33/33 7/30/30
f 13/22/22 25/4/4 19/3/3
f 6/34/34 19/3/3 33/2/2
f 23/10/10 35/17/17 14/35/35
f 14/35/35 29/23/23 13/22/22
f 54/3/36 68/2/37 57/1/38
f 44/5/39 60/4/40 54/3/36
f 36/6/41 55/8/42 62/7/43
f 36/6/41 57/1/38 69/9/44
f 43/11/45 68/2/37 58/10/46
f 37/12/47 47/14/48 59/13/49
f 56/16/50 63/15/51 47/14/48
f 37/12/47 58/10/46 70/17/52
f 38/18/53 50/21/54 65/20/55
f 48/22/56 60/4/40 50/21/54
f 38/18/53 51/24/57 64/23/58
f 53/19/59 67/25/60 51/24/57
f 39/26/61 50/21/54 60/4/40
f 52/27/62 65/20/55 50/21/54
f 45/29/63 66/28/64 52/27/62
f 44/5/39 62/7/43 45/29/63
f 43/11/45 59/13/49 42/30/65
f 40/31/66 57/1/38 68/2/37
f 46/32/67 69/9/44 57/1/38
f 42/30/65 61/33/68 46/32/67
f 54/3/36 60/4/40 48/22/56
f 41/34/69 58/10/46 68/2/37
f 49/35/70 70/17/52 58/10/46
f 48/22/56 64/23/58 49/35/70
f 1/6/6 22/1/1 19/3/3
f 1/6/6 19/3/3 9/5/5
f 20/8/8 1/6/6 27/7/7
f 22/1/1 1/6/6 34/9/9
f 2/12/12 23/10/10 8/11/11
f 12/14/14 2/12/12 24/13/13
f 2/12/12 12/14/14 21/16/16
f 23/10/10 2/12/12 35/17/17
f 15/21/21 3/18/18 30/20/20
f 3/18/18 15/21/21 13/22/22
f 16/24/24 3/18/18 29/23/23
f 3/18/18 16/24/24 18/19/19
f 15/21/21 4/26/26 25/4/4
f 4/26/26 15/21/21 17/27/27
f 4/26/26 17/27/27 10/29/29
f 4/26/26 10/29/29 9/5/5
f 5/31/31 7/30/30 8/11/11
f 22/1/1 5/31/31 33/2/2
f 5/31/31 22/1/1 11/32/32
f 5/31/31 11/32/32 7/30/30
f 6/34/34 13/22/22 19/3/3
f 23/10/10 6/34/34 33/2/2
f 6/34/34 23/10/10 14/35/35
f 6/34/34 14/35/35 13/22/22
f 36/6/41 54/3/36 57/1/38
f 36/6/41 44/5/39 54/3/36
f 44/5/39 36/6/41 62/7/43
f 55/8/42 36/6/41 69/9/44
f 37/12/47 43/11/45 58/10/46
f 43/11/45 37/12/47 59/13/49
f 37/12/47 56/16/50 47/14/48
f 56/16/50 37/12/47 70/17/52
f 53/19/59 38/18/53 65/20/55
f 38/18/53 48/22/56 50/21/54
f 48/22/56 38/18/53 64/23/58
f 38/18/53 53/19/59 51/24/57
f 44/5/39 39/26/61 60/4/40
f 39/26/61 52/27/62 50/21/54
f 39/26/61 45/29/63 52/27/62
f 39/26/61 44/5/39 45/29/63
f 40/31/66 43/11/45 42/30/65
f 43/11/45 40/31/66 68/2/37
f 40/31/66 46/32/67 57/1/38
f 40/31/66 42/30/65 46/32/67
f 41/34/69 54/3/36 48/22/56
f 54/3/36 41/34/69 68/2/37
f 41/34/69 49/35/70 58/10/46
f 41/34/69 48/22/56 49/35/70
